HIERARCHY
ROOT Hips
{
	OFFSET 55.310501 45.591206 43.872097
	CHANNELS 6 Xposition Yposition Zposition Zrotation Xrotation Yrotation
	JOINT Chest
	{
		OFFSET -0.153500 1.163101 7.852402
		CHANNELS 6 Xposition Yposition Zposition Zrotation Xrotation Yrotation
		JOINT Chest2
		{
			OFFSET 0.000000 0.000000 3.343300
			CHANNELS 6 Xposition Yposition Zposition Zrotation Xrotation Yrotation
			JOINT Neck
			{
				OFFSET 0.000000 0.000000 7.785500
				CHANNELS 6 Xposition Yposition Zposition Zrotation Xrotation Yrotation
				JOINT Head
				{
					OFFSET 0.000000 0.000000 2.173901
					CHANNELS 6 Xposition Yposition Zposition Zrotation Xrotation Yrotation
					End Site
					{
						OFFSET 0.000000 0.000000 10.528198
					}
				}
			}
			JOINT LeftCollar
			{
				OFFSET 2.676300 -1.652401 4.938301
				CHANNELS 6 Xposition Yposition Zposition Zrotation Xrotation Yrotation
				JOINT LeftShoulder
				{
					OFFSET 4.299000 0.000000 0.000000
					CHANNELS 6 Xposition Yposition Zposition Zrotation Xrotation Yrotation
					JOINT LeftElbow
					{
						OFFSET 0.000000 0.000000 -10.245102
						CHANNELS 6 Xposition Yposition Zposition Zrotation Xrotation Yrotation
						JOINT LeftWrist
						{
							OFFSET 0.000000 0.000000 -12.703300
							CHANNELS 6 Xposition Yposition Zposition Zrotation Xrotation Yrotation
							End Site
							{
								OFFSET 0.000000 0.000000 -2.173901
							}
						}
					}
				}
			}
			JOINT RightCollar
			{
				OFFSET -2.534599 -1.686401 5.195000
				CHANNELS 6 Xposition Yposition Zposition Zrotation Xrotation Yrotation
				JOINT RightShoulder
				{
					OFFSET -4.144100 0.000000 0.000000
					CHANNELS 6 Xposition Yposition Zposition Zrotation Xrotation Yrotation
					JOINT RightElbow
					{
						OFFSET 0.000000 0.000000 -10.116501
						CHANNELS 6 Xposition Yposition Zposition Zrotation Xrotation Yrotation
						JOINT RightWrist
						{
							OFFSET 0.000000 0.000000 -12.937801
							CHANNELS 6 Xposition Yposition Zposition Zrotation Xrotation Yrotation
							End Site
							{
								OFFSET 0.000000 0.000000 -2.173901
							}
						}
					}
				}
			}
		}
	}
	JOINT LeftHip
	{
		OFFSET 2.175598 0.064499 -2.662899
		CHANNELS 6 Xposition Yposition Zposition Zrotation Xrotation Yrotation
		JOINT LeftKnee
		{
			OFFSET 0.000000 -0.000004 -18.585800
			CHANNELS 6 Xposition Yposition Zposition Zrotation Xrotation Yrotation
			JOINT LeftAnkle
			{
				OFFSET 0.000000 0.000000 -18.979500
				CHANNELS 6 Xposition Yposition Zposition Zrotation Xrotation Yrotation
				End Site
				{
					OFFSET 0.000000 -9.264000 0.000000
				}
			}
		}
	}
	JOINT RightHip
	{
		OFFSET -2.092400 -0.058102 -2.581200
		CHANNELS 6 Xposition Yposition Zposition Zrotation Xrotation Yrotation
		JOINT RightKnee
		{
			OFFSET 0.000000 -0.000004 -18.665001
			CHANNELS 6 Xposition Yposition Zposition Zrotation Xrotation Yrotation
			JOINT RightAnkle
			{
				OFFSET 0.000000 0.000000 -18.566601
				CHANNELS 6 Xposition Yposition Zposition Zrotation Xrotation Yrotation
				End Site
				{
					OFFSET 0.000000 -8.497601 0.000000
				}
			}
		}
	}
}
MOTION
Frames: 8
Frame Time: 0.041667
41.555107 51.464302 44.371689 715.582144 3.915602 -5.858614 -0.153500 1.163102 7.852415 5.144037 -2.037730 1.821598 0.000005 0.000004 3.343300 6.437000 -4.046520 0.993326 0.000010 -0.000004 7.785505 -24.545678 11.193868 13.052327 -0.000006 0.000014 2.173906 -2.878211 -2.504628 -3.249751 2.676304 -1.652404 4.938297 11.268445 -0.190357 -11.464585 4.299007 -0.000002 -0.000010 -49.768945 -26.113587 -150.009669 -0.000002 -0.000008 -10.245111 47.136525 691.699814 7.356010 -0.000007 0.000008 -12.703310 1312.592751 -162.485351 597.328129 -2.534589 -1.686396 5.195007 -2.546022 7.019782 21.806306 -4.144102 0.000001 -0.000011 54.900784 -29.587266 156.673215 0.000004 0.000004 -10.116487 -93.383699 -12.534100 -24.921390 0.000003 -0.000004 -12.937795 -367.722768 -400.923334 -55.825622 2.175595 0.064499 -2.662895 -358.261290 -11.443339 3.823498 -0.000004 -0.000001 -18.585808 164.682992 -208.133663 -153.192059 -0.000003 -0.000002 -18.979513 389.282042 -2.233997 -123.342138 -2.092394 -0.058107 -2.581194 306.407641 -45.526677 -0.408974 -0.000005 -0.000007 -18.665009 -984.148734 47.647591 -134.258474 0.000008 -0.000012 -18.566603 725.720713 61.235173 -15.475797
41.547909 51.483894 44.380196 715.594548 3.883238 -5.776412 -0.153493 1.163106 7.852398 5.099654 -1.902510 1.856837 0.000002 -0.000001 3.343309 6.387530 -4.067264 0.986522 -0.000001 -0.000006 7.785512 -24.551859 11.184536 12.916909 0.000005 0.000014 2.173902 -2.900280 -2.581780 -3.250980 2.676292 -1.652403 4.938303 11.496534 -0.400011 -11.520220 4.299009 -0.000002 0.000004 -50.017895 -26.032527 -149.817672 -0.000007 0.000002 -10.245108 47.346086 691.620311 7.366198 -0.000003 0.000000 -12.703303 1312.347957 -162.578979 597.165898 -2.534593 -1.686408 5.195010 -2.542659 6.837228 21.690951 -4.144100 0.000008 -0.000006 54.772086 -29.490879 156.489579 0.000012 -0.000002 -10.116498 -93.558312 -12.594609 -25.026932 0.000005 0.000002 -12.937800 -367.667307 -400.935246 -55.824523 2.175599 0.064497 -2.662896 -358.300878 -11.382158 3.687541 -0.000001 -0.000008 -18.585804 165.076820 -208.127107 -153.328308 -0.000007 0.000005 -18.979515 389.014162 -2.191397 -123.377518 -2.092396 -0.058096 -2.581198 307.797393 -45.270548 0.459652 0.000000 -0.000004 -18.665005 -985.360574 47.787101 -134.042626 0.000006 -0.000015 -18.566605 725.416797 61.066625 -14.929038
41.537102 51.508102 44.391495 715.651648 3.864885 -5.729523 -0.153502 1.163096 7.852412 5.005418 -1.761849 1.978911 -0.000003 0.000007 3.343305 6.373423 -4.087881 0.980552 -0.000000 0.000011 7.785502 -24.575681 11.168088 12.734105 0.000001 0.000002 2.173899 -2.904403 -2.642590 -3.228800 2.676291 -1.652393 4.938303 11.754738 -0.694389 -11.636691 4.299004 -0.000008 0.000000 -50.174809 -25.856125 -149.556336 -0.000010 -0.000011 -10.245112 48.002682 691.668778 7.564292 -0.000013 0.000000 -12.703296 1311.885581 -162.590509 597.028147 -2.534602 -1.686391 5.194995 -2.520895 6.657822 21.458296 -4.144108 0.000005 0.000010 54.622256 -29.308526 156.423258 -0.000001 0.000002 -10.116491 -93.688694 -12.614449 -25.049125 0.000008 -0.000002 -12.937800 -367.638620 -400.914482 -55.826169 2.175590 0.064493 -2.662900 -358.375190 -11.366931 3.596393 -0.000008 -0.000012 -18.585804 165.486823 -208.179999 -153.481235 0.000000 0.000005 -18.979513 388.713907 -2.158247 -123.448771 -2.092400 -0.058109 -2.581192 308.743593 -45.110691 1.015467 -0.000002 -0.000005 -18.665003 -986.200851 47.947815 -133.878989 0.000003 -0.000008 -18.566608 725.205498 60.960716 -14.353499
41.522205 51.535900 44.404198 715.742900 3.881655 -5.645157 -0.153502 1.163101 7.852404 4.890263 -1.704577 2.014527 0.000005 0.000002 3.343293 6.397761 -4.069794 0.982831 0.000000 -0.000008 7.785511 -24.619084 11.165300 12.628484 -0.000005 -0.000005 2.173907 -2.920025 -2.702436 -3.238652 2.676290 -1.652407 4.938311 11.810629 -0.837059 -11.679696 4.298996 0.000002 0.000000 -50.145295 -25.675839 -149.398872 -0.000010 -0.000002 -10.245092 48.748296 691.800573 7.803985 0.000000 0.000008 -12.703286 1311.465825 -162.501429 596.943125 -2.534598 -1.686414 5.195011 -2.483247 6.576647 21.364770 -4.144108 0.000008 -0.000004 54.502994 -29.244203 156.478650 0.000002 -0.000005 -10.116488 -93.558108 -12.632752 -24.957918 -0.000000 0.000002 -12.937797 -367.747330 -400.871042 -55.833491 2.175594 0.064496 -2.662904 -358.486413 -11.403277 3.474426 -0.000001 -0.000000 -18.585806 165.794181 -208.217292 -153.603537 -0.000006 0.000002 -18.979515 388.495942 -2.105358 -123.544243 -2.092396 -0.058109 -2.581197 309.436584 -44.978995 1.353669 0.000006 -0.000011 -18.665009 -983.388234 50.633343 -136.726331 0.000001 -0.000007 -18.566610 727.817417 61.126355 -13.188029
41.507301 51.566101 44.416298 715.870870 3.932227 -5.563356 -0.153507 1.163095 7.852407 4.745831 -1.694593 2.029750 0.000003 0.000000 3.343307 6.421117 -4.060303 0.985683 0.000001 0.000004 7.785507 -24.657391 11.156131 12.559166 -0.000002 -0.000001 2.173903 -2.905136 -2.728319 -3.246850 2.676297 -1.652395 4.938300 11.818877 -0.911171 -11.690958 4.299000 -0.000007 -0.000010 -50.128705 -25.558959 -149.302007 0.000003 0.000015 -10.245094 49.295801 691.907889 7.987989 0.000008 0.000000 -12.703291 1311.181361 -162.412746 596.877336 -2.534598 -1.686394 5.195004 -2.354516 6.614105 21.298494 -4.144104 0.000006 -0.000002 54.244065 -29.224566 156.601744 0.000012 -0.000010 -10.116501 -93.335860 -12.670224 -24.834508 0.000001 -0.000004 -12.937809 -367.970212 -400.808259 -55.851604 2.175586 0.064494 -2.662899 -358.629710 -11.476833 3.361430 0.000004 -0.000003 -18.585804 165.838291 -208.165164 -153.642332 -0.000005 0.000002 -18.979513 388.524519 -2.043423 -123.609840 -2.092402 -0.058115 -2.581191 309.761920 -44.927222 1.444753 0.000004 -0.000003 -18.665009 -983.663299 50.806820 -136.685131 -0.000000 -0.000002 -18.566608 727.757421 61.017406 -12.880604
41.491295 51.596504 44.428288 716.032172 4.010211 -5.465725 -0.153496 1.163097 7.852400 4.570045 -1.716199 2.033073 -0.000011 -0.000003 3.343299 6.417501 -4.064970 0.984737 -0.000003 -0.000010 7.785495 -24.679903 11.138754 12.485250 -0.000005 0.000005 2.173899 -2.836663 -2.720337 -3.246333 2.676289 -1.652407 4.938284 11.917508 -1.058603 -11.735649 4.299004 -0.000004 -0.000002 -50.232271 -25.470144 -149.203611 -0.000010 -0.000004 -10.245081 49.728145 692.060667 8.179122 -0.000008 0.000004 -12.703304 1310.959189 -162.304802 596.862802 -2.534607 -1.686409 5.194990 -2.259899 6.608191 21.259782 -4.144102 0.000001 -0.000008 54.220866 -29.253208 156.827113 -0.000007 0.000005 -10.116500 -92.861920 -12.669645 -24.651816 -0.000002 0.000000 -12.937803 -368.263446 -400.775420 -55.875097 2.175592 0.064499 -2.662903 -358.806940 -11.575520 3.233040 -0.000003 0.000001 -18.585804 165.800165 -208.073845 -153.650474 -0.000005 -0.000006 -18.979519 388.627737 -1.983914 -123.634292 -2.092396 -0.058109 -2.581203 309.502045 -44.961441 1.132540 -0.000006 -0.000012 -18.665001 -983.518390 50.929572 -136.652182 0.000005 -0.000011 -18.566610 727.760809 60.906996 -12.690129
41.476906 51.623699 44.438194 716.176043 4.088807 -5.357944 -0.153500 1.163108 7.852398 4.413729 -1.741803 2.010064 0.000002 0.000011 3.343301 6.405050 -4.090321 0.983139 0.000004 0.000006 7.785499 -24.702972 11.118475 12.439821 -0.000003 -0.000003 2.173906 -2.724229 -2.675540 -3.254993 2.676304 -1.652397 4.938297 11.986965 -1.138634 -11.727803 4.299002 -0.000010 0.000000 -50.403446 -25.432689 -149.224921 -0.000001 0.000010 -10.245090 49.984052 692.199019 8.346085 -0.000001 0.000004 -12.703295 1310.841491 -162.183976 596.845316 -2.534600 -1.686393 5.195001 -2.167047 6.627153 21.254632 -4.144102 0.000002 -0.000008 54.371878 -29.320803 157.180070 0.000002 -0.000006 -10.116498 -92.301209 -12.551204 -24.421066 0.000004 -0.000006 -12.937803 -368.505289 -400.806675 -55.961680 2.175585 0.064499 -2.662909 -358.967395 -11.663641 3.106878 -0.000001 -0.000009 -18.585802 165.739677 -207.964958 -153.652127 -0.000006 0.000006 -18.979517 388.759341 -1.908250 -123.636505 -2.092402 -0.058104 -2.581209 309.055815 -45.034777 0.682607 0.000001 -0.000005 -18.665010 -983.196770 51.009366 -136.621965 -0.000005 0.000000 -18.566608 727.792501 60.779804 -12.559152
41.466003 51.646004 44.445297 716.281993 4.165435 -5.245785 -0.153498 1.163105 7.852402 4.299737 -1.778612 1.956411 -0.000002 0.000006 3.343297 6.372218 -4.121518 0.980375 0.000007 0.000006 7.785503 -24.724846 11.105242 12.432224 -0.000005 0.000008 2.173905 -2.579177 -2.616786 -3.286366 2.676301 -1.652401 4.938301 12.031008 -1.163972 -11.708728 4.299006 -0.000004 0.000010 -50.600698 -25.454676 -149.327661 -0.000001 -0.000004 -10.245105 50.017810 692.343874 8.471696 -0.000004 -0.000008 -12.703289 1310.898318 -162.058765 596.831492 -2.534594 -1.686399 5.195003 -2.093813 6.650801 21.330076 -4.144102 0.000008 0.000000 54.243163 -29.405190 157.286566 0.000000 -0.000004 -10.116488 -91.990354 -12.510092 -24.315789 0.000003 -0.000008 -12.937797 -368.779562 -400.858748 -56.026860 2.175595 0.064495 -2.662903 -359.089437 -11.724574 2.988194 -0.000002 -0.000007 -18.585804 165.631227 -207.807577 -153.641554 -0.000002 -0.000003 -18.979515 388.928703 -1.800561 -123.635494 -2.092398 -0.058107 -2.581202 308.675428 -45.105176 0.285360 0.000000 -0.000010 -18.665003 -982.951102 51.022739 -136.543937 0.000004 -0.000004 -18.566612 727.744143 60.619049 -12.557411
